<mxfile host="app.diagrams.net" agent="Mozilla/5.0 (Windows NT 10.0; Win64; x64) AppleWebKit/537.36 (KHTML, like Gecko) Chrome/134.0.0.0 Safari/537.36" version="26.1.3">
  <diagram name="Página-1" id="VO0AwvHdA44kebhncTNj">
    <mxGraphModel dx="954" dy="1735" grid="1" gridSize="10" guides="1" tooltips="1" connect="1" arrows="1" fold="1" page="1" pageScale="1" pageWidth="827" pageHeight="1169" math="0" shadow="0">
      <root>
        <mxCell id="0" />
        <mxCell id="1" parent="0" />
        <mxCell id="eaNFa7yRyqtscTY9dYG5-4" value="" style="edgeStyle=orthogonalEdgeStyle;rounded=0;orthogonalLoop=1;jettySize=auto;html=1;" edge="1" parent="1" source="eaNFa7yRyqtscTY9dYG5-2" target="eaNFa7yRyqtscTY9dYG5-3">
          <mxGeometry relative="1" as="geometry" />
        </mxCell>
        <mxCell id="eaNFa7yRyqtscTY9dYG5-2" value="" style="ellipse;whiteSpace=wrap;html=1;aspect=fixed;fillColor=#000000;" vertex="1" parent="1">
          <mxGeometry x="300" y="-1020" width="30" height="30" as="geometry" />
        </mxCell>
        <mxCell id="eaNFa7yRyqtscTY9dYG5-6" value="" style="edgeStyle=orthogonalEdgeStyle;rounded=0;orthogonalLoop=1;jettySize=auto;html=1;" edge="1" parent="1" source="eaNFa7yRyqtscTY9dYG5-3" target="eaNFa7yRyqtscTY9dYG5-5">
          <mxGeometry relative="1" as="geometry" />
        </mxCell>
        <mxCell id="eaNFa7yRyqtscTY9dYG5-3" value="Gestão entra no sistema" style="rounded=1;whiteSpace=wrap;html=1;fillColor=#FFFFFF;" vertex="1" parent="1">
          <mxGeometry x="255" y="-925" width="120" height="60" as="geometry" />
        </mxCell>
        <mxCell id="eaNFa7yRyqtscTY9dYG5-8" value="" style="edgeStyle=orthogonalEdgeStyle;rounded=0;orthogonalLoop=1;jettySize=auto;html=1;" edge="1" parent="1" source="eaNFa7yRyqtscTY9dYG5-5" target="eaNFa7yRyqtscTY9dYG5-7">
          <mxGeometry relative="1" as="geometry" />
        </mxCell>
        <mxCell id="eaNFa7yRyqtscTY9dYG5-5" value="Gestão seleciona gerar comprovante de matrícula" style="whiteSpace=wrap;html=1;fillColor=#FFFFFF;rounded=1;" vertex="1" parent="1">
          <mxGeometry x="255" y="-785" width="120" height="60" as="geometry" />
        </mxCell>
        <mxCell id="eaNFa7yRyqtscTY9dYG5-10" value="" style="edgeStyle=orthogonalEdgeStyle;rounded=0;orthogonalLoop=1;jettySize=auto;html=1;" edge="1" parent="1" source="eaNFa7yRyqtscTY9dYG5-7" target="eaNFa7yRyqtscTY9dYG5-9">
          <mxGeometry relative="1" as="geometry" />
        </mxCell>
        <mxCell id="eaNFa7yRyqtscTY9dYG5-7" value="Sistema pede para a gestão selecionar o aluno" style="whiteSpace=wrap;html=1;fillColor=#FFFFFF;rounded=1;" vertex="1" parent="1">
          <mxGeometry x="255" y="-645" width="120" height="60" as="geometry" />
        </mxCell>
        <mxCell id="eaNFa7yRyqtscTY9dYG5-12" value="" style="edgeStyle=orthogonalEdgeStyle;rounded=0;orthogonalLoop=1;jettySize=auto;html=1;" edge="1" parent="1" source="eaNFa7yRyqtscTY9dYG5-9" target="eaNFa7yRyqtscTY9dYG5-11">
          <mxGeometry relative="1" as="geometry" />
        </mxCell>
        <mxCell id="eaNFa7yRyqtscTY9dYG5-9" value="Gestão seleciona o aluno" style="whiteSpace=wrap;html=1;fillColor=#FFFFFF;rounded=1;" vertex="1" parent="1">
          <mxGeometry x="255" y="-505" width="120" height="60" as="geometry" />
        </mxCell>
        <mxCell id="eaNFa7yRyqtscTY9dYG5-14" style="edgeStyle=orthogonalEdgeStyle;rounded=0;orthogonalLoop=1;jettySize=auto;html=1;exitX=0.5;exitY=1;exitDx=0;exitDy=0;entryX=0.5;entryY=0;entryDx=0;entryDy=0;" edge="1" parent="1" source="eaNFa7yRyqtscTY9dYG5-11" target="eaNFa7yRyqtscTY9dYG5-13">
          <mxGeometry relative="1" as="geometry" />
        </mxCell>
        <mxCell id="eaNFa7yRyqtscTY9dYG5-11" value="Sistema pede confirmação da seleção" style="whiteSpace=wrap;html=1;fillColor=#FFFFFF;rounded=1;" vertex="1" parent="1">
          <mxGeometry x="255" y="-365" width="120" height="60" as="geometry" />
        </mxCell>
        <mxCell id="eaNFa7yRyqtscTY9dYG5-16" value="" style="edgeStyle=orthogonalEdgeStyle;rounded=0;orthogonalLoop=1;jettySize=auto;html=1;entryX=1;entryY=0.5;entryDx=0;entryDy=0;exitX=1;exitY=0.5;exitDx=0;exitDy=0;" edge="1" parent="1" source="eaNFa7yRyqtscTY9dYG5-13" target="eaNFa7yRyqtscTY9dYG5-7">
          <mxGeometry relative="1" as="geometry">
            <mxPoint x="460" y="-230" as="targetPoint" />
            <Array as="points">
              <mxPoint x="500" y="-230" />
              <mxPoint x="500" y="-615" />
            </Array>
          </mxGeometry>
        </mxCell>
        <mxCell id="eaNFa7yRyqtscTY9dYG5-17" value="[Cancelar]" style="edgeLabel;html=1;align=center;verticalAlign=middle;resizable=0;points=[];" vertex="1" connectable="0" parent="eaNFa7yRyqtscTY9dYG5-16">
          <mxGeometry x="-0.12" y="1" relative="1" as="geometry">
            <mxPoint as="offset" />
          </mxGeometry>
        </mxCell>
        <mxCell id="eaNFa7yRyqtscTY9dYG5-19" value="" style="edgeStyle=orthogonalEdgeStyle;rounded=0;orthogonalLoop=1;jettySize=auto;html=1;" edge="1" parent="1" source="eaNFa7yRyqtscTY9dYG5-13" target="eaNFa7yRyqtscTY9dYG5-18">
          <mxGeometry relative="1" as="geometry" />
        </mxCell>
        <mxCell id="eaNFa7yRyqtscTY9dYG5-20" value="[Confirmar]" style="edgeLabel;html=1;align=center;verticalAlign=middle;resizable=0;points=[];" vertex="1" connectable="0" parent="eaNFa7yRyqtscTY9dYG5-19">
          <mxGeometry x="-0.325" y="-2" relative="1" as="geometry">
            <mxPoint as="offset" />
          </mxGeometry>
        </mxCell>
        <mxCell id="eaNFa7yRyqtscTY9dYG5-13" value="" style="rhombus;whiteSpace=wrap;html=1;" vertex="1" parent="1">
          <mxGeometry x="295" y="-260" width="40" height="60" as="geometry" />
        </mxCell>
        <mxCell id="eaNFa7yRyqtscTY9dYG5-22" value="" style="edgeStyle=orthogonalEdgeStyle;rounded=0;orthogonalLoop=1;jettySize=auto;html=1;" edge="1" parent="1" source="eaNFa7yRyqtscTY9dYG5-18" target="eaNFa7yRyqtscTY9dYG5-21">
          <mxGeometry relative="1" as="geometry" />
        </mxCell>
        <mxCell id="eaNFa7yRyqtscTY9dYG5-18" value="Sistema insere nome e matricula do aluno selecionado" style="rounded=1;whiteSpace=wrap;html=1;" vertex="1" parent="1">
          <mxGeometry x="255" y="-100" width="120" height="60" as="geometry" />
        </mxCell>
        <mxCell id="eaNFa7yRyqtscTY9dYG5-24" value="" style="edgeStyle=orthogonalEdgeStyle;rounded=0;orthogonalLoop=1;jettySize=auto;html=1;" edge="1" parent="1" source="eaNFa7yRyqtscTY9dYG5-21" target="eaNFa7yRyqtscTY9dYG5-23">
          <mxGeometry relative="1" as="geometry" />
        </mxCell>
        <mxCell id="eaNFa7yRyqtscTY9dYG5-21" value="Sistema pede para a gestão a carga horária" style="whiteSpace=wrap;html=1;rounded=1;" vertex="1" parent="1">
          <mxGeometry x="255" y="20" width="120" height="60" as="geometry" />
        </mxCell>
        <mxCell id="eaNFa7yRyqtscTY9dYG5-26" value="" style="edgeStyle=orthogonalEdgeStyle;rounded=0;orthogonalLoop=1;jettySize=auto;html=1;" edge="1" parent="1" source="eaNFa7yRyqtscTY9dYG5-23" target="eaNFa7yRyqtscTY9dYG5-25">
          <mxGeometry relative="1" as="geometry" />
        </mxCell>
        <mxCell id="eaNFa7yRyqtscTY9dYG5-23" value="Gestão informa carga horária" style="whiteSpace=wrap;html=1;rounded=1;" vertex="1" parent="1">
          <mxGeometry x="255" y="140" width="120" height="60" as="geometry" />
        </mxCell>
        <mxCell id="eaNFa7yRyqtscTY9dYG5-28" value="" style="edgeStyle=orthogonalEdgeStyle;rounded=0;orthogonalLoop=1;jettySize=auto;html=1;" edge="1" parent="1" source="eaNFa7yRyqtscTY9dYG5-25" target="eaNFa7yRyqtscTY9dYG5-27">
          <mxGeometry relative="1" as="geometry" />
        </mxCell>
        <mxCell id="eaNFa7yRyqtscTY9dYG5-25" value="Sistema pede a gestão o turno do aluno" style="whiteSpace=wrap;html=1;rounded=1;" vertex="1" parent="1">
          <mxGeometry x="255" y="260" width="120" height="60" as="geometry" />
        </mxCell>
        <mxCell id="eaNFa7yRyqtscTY9dYG5-30" value="" style="edgeStyle=orthogonalEdgeStyle;rounded=0;orthogonalLoop=1;jettySize=auto;html=1;" edge="1" parent="1" source="eaNFa7yRyqtscTY9dYG5-27" target="eaNFa7yRyqtscTY9dYG5-29">
          <mxGeometry relative="1" as="geometry" />
        </mxCell>
        <mxCell id="eaNFa7yRyqtscTY9dYG5-27" value="Gestão informa o turno do aluno" style="whiteSpace=wrap;html=1;rounded=1;" vertex="1" parent="1">
          <mxGeometry x="255" y="380" width="120" height="60" as="geometry" />
        </mxCell>
        <mxCell id="eaNFa7yRyqtscTY9dYG5-32" style="edgeStyle=orthogonalEdgeStyle;rounded=0;orthogonalLoop=1;jettySize=auto;html=1;exitX=0.5;exitY=1;exitDx=0;exitDy=0;entryX=0.5;entryY=0;entryDx=0;entryDy=0;" edge="1" parent="1" source="eaNFa7yRyqtscTY9dYG5-29" target="eaNFa7yRyqtscTY9dYG5-31">
          <mxGeometry relative="1" as="geometry" />
        </mxCell>
        <mxCell id="eaNFa7yRyqtscTY9dYG5-29" value="Sistema pede confirmação com assinatura digital" style="whiteSpace=wrap;html=1;rounded=1;" vertex="1" parent="1">
          <mxGeometry x="255" y="510" width="120" height="60" as="geometry" />
        </mxCell>
        <mxCell id="eaNFa7yRyqtscTY9dYG5-36" value="" style="edgeStyle=orthogonalEdgeStyle;rounded=0;orthogonalLoop=1;jettySize=auto;html=1;" edge="1" parent="1" source="eaNFa7yRyqtscTY9dYG5-31" target="eaNFa7yRyqtscTY9dYG5-35">
          <mxGeometry relative="1" as="geometry" />
        </mxCell>
        <mxCell id="eaNFa7yRyqtscTY9dYG5-37" value="[Confirma]" style="edgeLabel;html=1;align=center;verticalAlign=middle;resizable=0;points=[];" vertex="1" connectable="0" parent="eaNFa7yRyqtscTY9dYG5-36">
          <mxGeometry x="-0.2" y="2" relative="1" as="geometry">
            <mxPoint as="offset" />
          </mxGeometry>
        </mxCell>
        <mxCell id="eaNFa7yRyqtscTY9dYG5-43" value="" style="edgeStyle=orthogonalEdgeStyle;rounded=0;orthogonalLoop=1;jettySize=auto;html=1;" edge="1" parent="1" source="eaNFa7yRyqtscTY9dYG5-31" target="eaNFa7yRyqtscTY9dYG5-42">
          <mxGeometry relative="1" as="geometry" />
        </mxCell>
        <mxCell id="eaNFa7yRyqtscTY9dYG5-44" value="[Cancelar]" style="edgeLabel;html=1;align=center;verticalAlign=middle;resizable=0;points=[];" vertex="1" connectable="0" parent="eaNFa7yRyqtscTY9dYG5-43">
          <mxGeometry x="-0.1724" y="-2" relative="1" as="geometry">
            <mxPoint as="offset" />
          </mxGeometry>
        </mxCell>
        <mxCell id="eaNFa7yRyqtscTY9dYG5-31" value="" style="rhombus;whiteSpace=wrap;html=1;" vertex="1" parent="1">
          <mxGeometry x="295" y="620" width="40" height="60" as="geometry" />
        </mxCell>
        <mxCell id="eaNFa7yRyqtscTY9dYG5-41" style="edgeStyle=orthogonalEdgeStyle;rounded=0;orthogonalLoop=1;jettySize=auto;html=1;exitX=0.5;exitY=1;exitDx=0;exitDy=0;entryX=0.5;entryY=0;entryDx=0;entryDy=0;" edge="1" parent="1" source="eaNFa7yRyqtscTY9dYG5-35" target="eaNFa7yRyqtscTY9dYG5-39">
          <mxGeometry relative="1" as="geometry" />
        </mxCell>
        <mxCell id="eaNFa7yRyqtscTY9dYG5-35" value="Sistema Gera comprovante de matrícula" style="rounded=1;whiteSpace=wrap;html=1;" vertex="1" parent="1">
          <mxGeometry x="255" y="760" width="120" height="60" as="geometry" />
        </mxCell>
        <mxCell id="eaNFa7yRyqtscTY9dYG5-38" value="" style="group" vertex="1" connectable="0" parent="1">
          <mxGeometry x="300" y="880" width="30" height="30" as="geometry" />
        </mxCell>
        <mxCell id="eaNFa7yRyqtscTY9dYG5-39" value="" style="ellipse;shape=doubleEllipse;whiteSpace=wrap;html=1;aspect=fixed;fillColor=#FFFFFF;" vertex="1" parent="eaNFa7yRyqtscTY9dYG5-38">
          <mxGeometry width="30" height="30" as="geometry" />
        </mxCell>
        <mxCell id="eaNFa7yRyqtscTY9dYG5-40" value="" style="ellipse;shape=doubleEllipse;whiteSpace=wrap;html=1;aspect=fixed;fillColor=#000000;" vertex="1" parent="eaNFa7yRyqtscTY9dYG5-38">
          <mxGeometry x="3.5" y="3.75" width="22.5" height="22.5" as="geometry" />
        </mxCell>
        <mxCell id="eaNFa7yRyqtscTY9dYG5-45" style="edgeStyle=orthogonalEdgeStyle;rounded=0;orthogonalLoop=1;jettySize=auto;html=1;exitX=0.5;exitY=0;exitDx=0;exitDy=0;entryX=1;entryY=0.25;entryDx=0;entryDy=0;" edge="1" parent="1" source="eaNFa7yRyqtscTY9dYG5-42" target="eaNFa7yRyqtscTY9dYG5-7">
          <mxGeometry relative="1" as="geometry" />
        </mxCell>
        <mxCell id="eaNFa7yRyqtscTY9dYG5-42" value="Sistema mostra mensagem de cancelamento" style="rounded=1;whiteSpace=wrap;html=1;" vertex="1" parent="1">
          <mxGeometry x="480" y="620" width="120" height="60" as="geometry" />
        </mxCell>
      </root>
    </mxGraphModel>
  </diagram>
</mxfile>
